Coordinates
version=1
nRows=24
nColumns=38
inDegrees=no

Units are S.I. units (second, meters, Newtons, ...)
If the header above contains a line with 'inDegrees', this indicates whether rotational values are in degrees (yes) or radians (no).

endheader
time	pelvis_tilt	pelvis_list	pelvis_rotation	pelvis_tx	pelvis_ty	pelvis_tz	hip_flexion_r	hip_adduction_r	hip_rotation_r	knee_angle_r	ankle_angle_r	subtalar_angle_r	mtp_angle_r	hip_flexion_l	hip_adduction_l	hip_rotation_l	knee_angle_l	ankle_angle_l	subtalar_angle_l	mtp_angle_l	lumbar_extension	lumbar_bending	lumbar_rotation	arm_flex_r	arm_add_r	arm_rot_r	elbow_flex_r	pro_sup_r	wrist_flex_r	wrist_dev_r	arm_flex_l	arm_add_l	arm_rot_l	elbow_flex_l	pro_sup_l	wrist_flex_l	wrist_dev_l
21.45	2.87386	1.32153	-1.21817	0.658579	-0.210334	0.953526	-0.143645	0.0426068	0.0476097	0.469603	-0.166771	0	0	-0.244577	-0.130021	-0.140564	0.279937	-0.189076	0	0	-0.400938	0.0729687	0.108589	0.0986464	-0.531629	-0.105766	1.92991	1.5708	0	0	0.374279	-0.287519	0.281131	1.56167	1.5708	0	0
21.46	2.88161	1.32246	-1.22199	0.658114	-0.209378	0.953454	-0.148617	0.0377547	0.0463576	0.460793	-0.163224	0	0	-0.248435	-0.126956	-0.131607	0.271651	-0.19083	0	0	-0.398943	0.0758918	0.0986998	0.0833941	-0.531579	-0.0923561	1.93819	1.5708	0	0	0.342102	-0.290962	0.264398	1.5734	1.5708	0	0
21.47	2.89011	1.32398	-1.22546	0.657609	-0.208344	0.953353	-0.154493	0.0324457	0.0434255	0.449402	-0.164094	0	0	-0.251339	-0.1234	-0.1206	0.263317	-0.192304	0	0	-0.396037	0.0790621	0.0881515	0.0671777	-0.531306	-0.0790575	1.94408	1.5708	0	0	0.312227	-0.294265	0.250861	1.58073	1.5708	0	0
21.48	2.90194	1.32531	-1.23086	0.6571	-0.207264	0.953273	-0.162728	0.0265935	0.0377077	0.432643	-0.173847	0	0	-0.255145	-0.118456	-0.102945	0.252177	-0.195409	0	0	-0.393649	0.0806094	0.0708355	0.0577745	-0.532547	-0.0558069	1.94328	1.5708	0	0	0.278099	-0.299316	0.23073	1.58979	1.5708	0	0
21.49	2.88135	1.34252	-1.2068	0.656432	-0.205317	0.952511	-0.15197	0.0220398	0.035863	0.416217	-0.191406	0	0	-0.239699	-0.114788	-0.0888249	0.244648	-0.197411	0	0	-0.373127	0.079031	0.048405	0.0498073	-0.536694	-0.020926	1.9323	1.5708	0	0	0.240078	-0.357627	0.195358	1.66575	1.5708	0	0
21.5	2.89128	1.34518	-1.21117	0.656196	-0.204111	0.952238	-0.158953	0.0168184	0.0291978	0.399869	-0.20284	0	0	-0.240127	-0.111434	-0.0791077	0.239327	-0.198098	0	0	-0.36862	0.0803914	0.033983	0.039013	-0.536925	0.00180436	1.92544	1.5708	0	0	0.213683	-0.361866	0.18522	1.66047	1.5708	0	0
21.51	2.90071	1.34727	-1.21566	0.656118	-0.202861	0.951965	-0.166458	0.012804	0.0223074	0.38476	-0.210504	0	0	-0.240603	-0.109019	-0.0720892	0.235538	-0.198468	0	0	-0.363999	0.0817723	0.0209726	0.0285787	-0.536992	0.0248716	1.91434	1.5708	0	0	0.191357	-0.364402	0.178097	1.64798	1.5708	0	0
21.52	2.90827	1.34902	-1.21945	0.656281	-0.201603	0.951711	-0.1733	0.0104353	0.015802	0.372035	-0.214245	0	0	-0.240871	-0.107482	-0.0675078	0.233003	-0.198493	0	0	-0.359132	0.0830665	0.0103007	0.0182507	-0.537387	0.0468648	1.89918	1.5708	0	0	0.174118	-0.365875	0.17554	1.62778	1.5708	0	0
21.53	2.9126	1.34996	-1.22114	0.656694	-0.200382	0.951565	-0.179471	0.0101627	0.00986698	0.361339	-0.216516	0	0	-0.24133	-0.107085	-0.0642148	0.231932	-0.198517	0	0	-0.354543	0.0846615	0.00222037	0.00804349	-0.537285	0.0670424	1.8796	1.5708	0	0	0.162003	-0.366648	0.177734	1.60047	1.5708	0	0
21.54	2.94481	1.33466	-1.24924	0.657595	-0.199896	0.952108	-0.204162	0.0106112	-0.0011322	0.350086	-0.216497	0	0	-0.260217	-0.107203	-0.062528	0.2303	-0.198487	0	0	-0.367534	0.0845654	0.000674065	-0.00438652	-0.53583	0.0768594	1.86189	1.5708	0	0	0.155866	-0.343661	0.213774	1.52495	1.5708	0	0
21.55	2.94539	1.33127	-1.24946	0.658255	-0.198799	0.952351	-0.213495	0.0135136	-0.00594639	0.341101	-0.217439	0	0	-0.265407	-0.108704	-0.0620861	0.228869	-0.198727	0	0	-0.366799	0.0867617	-0.00172343	-0.0129212	-0.532794	0.0953449	1.8302	1.5708	0	0	0.152249	-0.352068	0.231426	1.49429	1.5708	0	0
21.56	2.94225	1.32932	-1.24656	0.659003	-0.197598	0.952605	-0.221703	0.0170941	-0.0094493	0.331761	-0.218327	0	0	-0.26909	-0.110495	-0.0617083	0.22732	-0.198962	0	0	-0.362796	0.088339	-0.00439931	-0.0177807	-0.531618	0.119212	1.79285	1.5708	0	0	0.151066	-0.362786	0.255614	1.45891	1.5708	0	0
21.57	2.9389	1.32757	-1.24412	0.659841	-0.196394	0.952854	-0.230267	0.0205829	-0.010986	0.32216	-0.218731	0	0	-0.272883	-0.112127	-0.0619971	0.225501	-0.199113	0	0	-0.358295	0.0896773	-0.00612771	-0.0218117	-0.528869	0.141456	1.75166	1.5708	0	0	0.151056	-0.372742	0.281948	1.42135	1.5708	0	0
21.58	2.93728	1.32599	-1.2438	0.660776	-0.195184	0.953047	-0.239359	0.0235113	-0.0108507	0.311054	-0.219131	0	0	-0.276898	-0.113263	-0.0627994	0.223399	-0.198968	0	0	-0.353538	0.0903861	-0.00762741	-0.0243777	-0.524623	0.162993	1.70688	1.5708	0	0	0.150188	-0.381055	0.307314	1.38369	1.5708	0	0
21.59	2.93719	1.32472	-1.24518	0.661763	-0.193993	0.953187	-0.248799	0.0257387	-0.00962207	0.298463	-0.220042	0	0	-0.280725	-0.113963	-0.0636038	0.221793	-0.198882	0	0	-0.348302	0.0906339	-0.00921821	-0.0253232	-0.519702	0.184965	1.65915	1.5708	0	0	0.147818	-0.387928	0.331696	1.34659	1.5708	0	0
21.6	2.93797	1.32352	-1.24758	0.66277	-0.192876	0.953287	-0.258415	0.0275327	-0.00736325	0.284485	-0.22241	0	0	-0.284424	-0.114472	-0.0645117	0.220632	-0.198879	0	0	-0.342819	0.0907149	-0.0110531	-0.0238265	-0.514739	0.208641	1.60805	1.5708	0	0	0.145253	-0.39502	0.357491	1.30972	1.5708	0	0
21.61	2.94116	1.32176	-1.25185	0.663725	-0.191861	0.953375	-0.268813	0.0287428	-0.00586879	0.269598	-0.225863	0	0	-0.288646	-0.114736	-0.065277	0.219275	-0.198676	0	0	-0.337894	0.0910122	-0.0139894	-0.0202227	-0.50909	0.23329	1.55416	1.5708	0	0	0.142119	-0.400827	0.382296	1.27307	1.5708	0	0
21.62	2.94672	1.31899	-1.25808	0.664632	-0.190942	0.953456	-0.280398	0.0291593	-0.00565401	0.254118	-0.23047	0	0	-0.293894	-0.114883	-0.0663134	0.217931	-0.198705	0	0	-0.33384	0.0915536	-0.0182995	-0.0141028	-0.503058	0.25986	1.4973	1.5708	0	0	0.13859	-0.406125	0.406598	1.23721	1.5708	0	0
21.63	2.95238	1.31667	-1.26344	0.665505	-0.189953	0.95351	-0.291627	0.0295553	-0.00827223	0.238222	-0.236316	0	0	-0.298485	-0.115214	-0.0666612	0.216574	-0.19896	0	0	-0.321242	0.0925532	-0.0399539	0.0159513	-0.496563	0.318046	1.41996	1.5708	0	0	0.121228	-0.413845	0.416641	1.20123	1.5708	0	0
21.64	2.95806	1.31691	-1.26755	0.666384	-0.188798	0.953444	-0.299822	0.0296898	-0.0136963	0.223767	-0.24065	0	0	-0.300106	-0.115168	-0.0650349	0.215316	-0.19886	0	0	-0.317982	0.0902011	-0.0383183	0.0103717	-0.488914	0.330091	1.3674	1.5708	0	0	0.12338	-0.416579	0.446701	1.16842	1.5708	0	0
21.65	2.96293	1.31525	-1.27119	0.667279	-0.187829	0.953489	-0.309044	0.0306911	-0.0189412	0.211061	-0.244883	0	0	-0.303702	-0.115823	-0.0637139	0.213382	-0.198674	0	0	-0.316464	0.0892731	-0.0357945	0.00507255	-0.48108	0.341184	1.31525	1.5708	0	0	0.12855	-0.419092	0.481202	1.13368	1.5708	0	0
21.66	2.9673	1.31201	-1.27422	0.668156	-0.186979	0.953628	-0.319322	0.0324436	-0.0240206	0.199945	-0.248621	0	0	-0.308968	-0.117144	-0.0622506	0.211349	-0.19892	0	0	-0.316508	0.0893063	-0.0341251	0.00109933	-0.47358	0.353374	1.26386	1.5708	0	0	0.133707	-0.42003	0.514364	1.09801	1.5708	0	0
21.67	2.97116	1.30949	-1.27718	0.669043	-0.18619	0.953674	-0.328027	0.0335707	-0.0279676	0.191132	-0.250883	0	0	-0.313384	-0.118262	-0.0607149	0.209874	-0.199105	0	0	-0.315617	0.0894551	-0.0330392	-0.00150301	-0.466101	0.366511	1.21199	1.5708	0	0	0.138523	-0.419928	0.546802	1.06126	1.5708	0	0
21.68	2.9732	1.30928	-1.27965	0.669992	-0.185553	0.953526	-0.332397	0.0341112	-0.0288696	0.186124	-0.250735	0	0	-0.315039	-0.118699	-0.0592246	0.209207	-0.198621	0	0	-0.312402	0.08952	-0.0315238	-0.00306836	-0.458822	0.380324	1.1607	1.5708	0	0	0.142543	-0.417055	0.575108	1.02258	1.5708	0	0
